<svg viewBox="0 0 322 285" fill="none" xmlns="http://www.w3.org/2000/svg">
<g clip-path="url(#clip0_3149_608)">
<rect width="322" height="285" rx="16" fill="url(#paint0_radial_3149_608)"/>
<ellipse cx="18.8174" cy="13.9261" rx="18.8174" ry="13.9261" transform="matrix(-0.974257 -0.225439 -0.225439 0.974257 289.895 119.135)" fill="#CA9F11"/>
<ellipse cx="171.43" cy="154.277" rx="18.8174" ry="13.925" transform="rotate(-41.6974 171.43 154.277)" fill="#CA9F11"/>
<path d="M291.882 154.921C284.066 131.53 259.511 118.145 235.616 124.251L197.771 133.922C174.21 139.943 159.121 162.928 162.966 186.94L217.774 529.169C222.151 556.497 249.058 574.161 275.873 567.309L368.578 543.619C395.047 536.856 410.207 509.043 401.549 483.132L291.882 154.921Z" fill="#FFD23C"/>
<path d="M313.649 275.048C305.681 251.873 281.257 238.698 257.515 244.765L239.601 249.342C216.364 255.28 201.314 277.749 204.667 301.498L234.752 514.596C238.67 542.346 265.829 560.537 292.981 553.599L350.592 538.877C377.218 532.073 392.368 503.991 383.432 478.002L313.649 275.048Z" fill="#F0F2DC"/>
<path d="M222.172 183.517C224.745 193.586 220.199 203.443 212.017 205.534C203.836 207.624 195.119 201.157 192.546 191.088C189.973 181.019 194.519 171.161 202.7 169.071C210.881 166.98 219.599 173.448 222.172 183.517Z" fill="black"/>
<rect x="204.904" y="176.67" width="8" height="7" rx="3.5" transform="rotate(-14.3343 204.904 176.67)" fill="white"/>
<path d="M235.292 206.363C234.356 202.698 237.909 199.482 241.463 200.779L250.904 204.224C254.297 205.462 255.087 209.904 252.328 212.236L245.288 218.187C242.636 220.429 238.553 219.123 237.693 215.759L235.292 206.363Z" fill="#534100"/>
<path d="M243.269 204.325C242.332 200.66 237.672 199.543 235.176 202.386L228.659 209.807C226.25 212.55 227.748 216.872 231.337 217.537L240.169 219.172C243.546 219.798 246.434 216.71 245.583 213.382L243.269 204.325Z" fill="#534100"/>
<path d="M242.683 178.275C245.256 188.344 253.974 194.812 262.155 192.722C270.336 190.631 274.882 180.774 272.309 170.705C269.736 160.636 261.018 154.168 252.837 156.258C244.656 158.349 240.11 168.206 242.683 178.275Z" fill="black"/>
<rect x="255.516" y="162.705" width="8" height="7" rx="3.5" transform="rotate(-14.3343 255.516 162.705)" fill="white"/>
<path d="M240 168.5C248 168.5 256.5 156.5 256.5 142" stroke="white" stroke-linecap="round"/>
<path d="M273 168.5C265 168.5 256.5 156.5 256.5 142" stroke="white" stroke-linecap="round"/>
<path d="M240 168.5C248 168.5 256.5 180.5 256.5 195" stroke="white" stroke-linecap="round"/>
<path d="M273 168.5C265 168.5 256.5 180.5 256.5 195" stroke="white" stroke-linecap="round"/>
<path d="M243 168.5L251 162.5L253 159L256.5 149.5L260.5 160.5L265 166L269.5 168.5L263.5 172.5L259.5 178.5L257.5 184L256.5 189L254 180L250.5 174L246.5 170L243 168.5Z" fill="white" stroke="white" stroke-linecap="round"/>
</g>
<defs>
<radialGradient id="paint0_radial_3149_608" cx="0" cy="0" r="1" gradientUnits="userSpaceOnUse" gradientTransform="translate(207 184) rotate(119.32) scale(167.451 167.451)">
<stop stop-color="#91B2FB"/>
<stop offset="1" stop-color="#D8E5F6"/>
</radialGradient>
<clipPath id="clip0_3149_608">
<rect width="322" height="285" rx="16" fill="white"/>
</clipPath>
</defs>
</svg>
