<svg width="322" height="285" viewBox="0 0 322 285" fill="none" xmlns="http://www.w3.org/2000/svg">
<g clip-path="url(#clip0_2726_828)">
<rect width="322" height="285" rx="16" fill="url(#paint0_radial_2726_828)"/>
<path d="M25.24 26H34.24V38.3H36.88V40L36.68 43.48H34.98L35.18 40H22.1L22.3 43.48H20.6L20.4 40V38.3H21.86C23.18 38.3 24.22 37.74 24.48 34.72L25.24 26ZM25.2 38.3H32.44V27.66H26.8L26.06 35.74C25.86 36.86 25.56 37.68 25.2 38.3ZM44.2444 40.32C39.9644 40.32 37.2844 37.5 37.2844 33C37.2844 28.5 39.9644 25.68 44.2444 25.68C48.5244 25.68 51.2044 28.5 51.2044 33C51.2044 37.5 48.5244 40.32 44.2444 40.32ZM39.0444 33C39.0444 36.52 41.0444 38.72 44.2444 38.72C47.4444 38.72 49.4444 36.52 49.4444 33C49.4444 29.48 47.4444 27.28 44.2444 27.28C41.0444 27.28 39.0444 29.48 39.0444 33ZM53.2117 26H63.2517V27.66H55.0117V40H53.2117V26ZM64.4422 26H66.2422V31.96H74.0822V26H75.8822V40H74.0822V33.62H66.2422V40H64.4422V26ZM87.6298 40L87.4298 37.16V34.48V34.38L87.4498 37.12L87.4298 37.16C86.5098 39 83.8698 40.3 81.7898 40.3C79.6498 40.3 77.4898 38.92 77.4898 36.38C77.4898 34.56 78.7698 32.9 80.8498 32.14C82.6898 31.48 85.6698 31.08 87.4098 31.08L87.4298 32.36H87.4098V30.98C87.4098 30.08 87.3498 27.28 83.4498 27.28C80.0698 27.28 79.5298 29.74 79.2498 30.96L77.5098 30.58C77.7298 29.22 78.8498 25.68 83.5298 25.68C87.4498 25.68 89.2098 28.12 89.2098 31.42V37.16C89.2098 38.06 89.2098 38.44 90.4098 38.44L91.3498 38.46V40H87.6298ZM79.3298 36.42C79.3298 37.4 79.8098 38.58 81.7898 38.58C84.5498 38.58 87.2098 36.34 87.4298 34.48L87.4098 32.36C86.3698 32.42 83.1298 33.06 81.3498 33.72C79.7298 34.32 79.3298 35.54 79.3298 36.42ZM110.228 31.26C110.228 28.56 109.228 27.42 107.068 27.42C104.368 27.42 103.388 29.2 103.388 31.84V39.98H101.588V32.14C101.588 28.94 100.728 27.36 98.2277 27.36C94.3477 27.36 94.3477 31.2 94.3477 31.94V40H92.5477V26H94.0477L94.3477 28.76C94.5277 27.76 95.8877 25.68 98.8077 25.68C100.848 25.68 102.208 26.72 102.768 28.36C103.328 27.22 104.808 25.74 107.428 25.74C110.308 25.74 112.028 27.52 112.028 30.9V40.04H110.228V31.26ZM114.227 40V26H116.027V31.26H120.587C124.487 31.26 125.407 34.18 125.407 35.54C125.407 36.84 124.707 39.96 120.587 39.98L116.027 40H114.227ZM116.027 38.42C117.847 38.4 120.527 38.4 120.587 38.4C122.947 38.36 123.767 36.96 123.767 35.5C123.767 34.22 122.747 32.82 120.587 32.82C119.607 32.82 117.047 32.88 116.027 32.84V38.42ZM130.399 26H132.199L136.279 26.02C140.499 26.04 141.179 28.1 141.179 29.48C141.179 31.36 139.779 32.36 138.639 32.64C140.259 32.74 141.839 33.86 141.839 36.16C141.839 38.12 140.679 39.96 136.899 39.98L132.199 40H130.399V26ZM132.199 38.44C134.079 38.42 136.479 38.42 137.039 38.4C138.479 38.36 140.179 37.92 140.179 36.04C140.179 34.36 138.799 33.24 136.839 33.24C135.099 33.24 133.059 33.26 132.199 33.24V38.44ZM132.199 31.94C133.139 31.92 135.299 31.98 136.079 31.98C138.439 31.98 139.539 31 139.539 29.68C139.539 28.2 138.139 27.66 136.839 27.62C136.319 27.6 133.879 27.6 132.199 27.58V31.94ZM143.837 26H145.637L150.197 26.02C154.317 26.04 155.017 29.14 155.017 30.38C155.017 31.8 154.097 34.74 150.197 34.74H145.637V40H143.837V26ZM145.637 33.16C146.697 33.12 149.397 33.18 149.897 33.18C152.397 33.18 153.257 31.78 153.257 30.38C153.257 29.04 152.477 27.64 150.197 27.6C150.157 27.6 147.517 27.6 145.637 27.58V33.16ZM157.384 33.26C157.484 36.5 159.404 38.72 162.584 38.72C164.764 38.72 166.904 37.7 167.744 34.78L169.344 35.5C168.324 39.02 165.444 40.32 162.584 40.32C158.504 40.32 155.624 37.5 155.624 33C155.624 28.5 158.504 25.68 162.584 25.68C166.944 25.68 169.504 28.42 169.344 33.26H157.384ZM157.484 31.66H167.564C167.324 29.28 165.924 27.28 162.584 27.28C159.784 27.28 157.944 29.02 157.484 31.66ZM171.337 26H173.357L178.857 38.14L184.357 26H186.377V40H184.577V29.38L179.757 40H177.957L173.137 29.38V40H171.337V26ZM191.218 36.92V40H187.778V38.66L188.318 38.64C189.518 38.6 189.518 38.2 189.518 37.62C189.518 35.92 189.678 34.44 191.198 33.52C189.518 33.04 188.518 31.82 188.518 30C188.518 27.62 190.258 26.04 193.198 26.02L197.698 26H199.498V40H197.698V34.1H194.118C191.698 34.1 191.218 35.68 191.218 36.92ZM190.358 30.14C190.358 31.66 191.218 32.54 193.518 32.54H197.698V27.58H193.618C191.338 27.58 190.358 28.52 190.358 30.14ZM202.323 40.32C201.583 40.32 201.103 39.8 201.103 39.08C201.103 38.32 201.583 37.88 202.323 37.88C203.063 37.88 203.543 38.38 203.543 39.08C203.543 39.82 203.023 40.32 202.323 40.32ZM21.2 50H23L27.08 50.02C31.3 50.04 31.98 52.1 31.98 53.48C31.98 55.36 30.58 56.36 29.44 56.64C31.06 56.74 32.64 57.86 32.64 60.16C32.64 62.12 31.48 63.96 27.7 63.98L23 64H21.2V50ZM23 62.44C24.88 62.42 27.28 62.42 27.84 62.4C29.28 62.36 30.98 61.92 30.98 60.04C30.98 58.36 29.6 57.24 27.64 57.24C25.9 57.24 23.86 57.26 23 57.24V62.44ZM23 55.94C23.94 55.92 26.1 55.98 26.88 55.98C29.24 55.98 30.34 55 30.34 53.68C30.34 52.2 28.94 51.66 27.64 51.62C27.12 51.6 24.68 51.6 23 51.58V55.94ZM41.1975 64.32C36.9175 64.32 34.2375 61.5 34.2375 57C34.2375 52.5 36.9175 49.68 41.1975 49.68C45.4775 49.68 48.1575 52.5 48.1575 57C48.1575 61.5 45.4775 64.32 41.1975 64.32ZM35.9975 57C35.9975 60.52 37.9975 62.72 41.1975 62.72C44.3975 62.72 46.3975 60.52 46.3975 57C46.3975 53.48 44.3975 51.28 41.1975 51.28C37.9975 51.28 35.9975 53.48 35.9975 57ZM53.1448 50.02H62.1448V64.02H60.3448V51.68H54.7048L53.9648 60.18C53.5048 64.26 51.2248 64.02 49.7648 64.02V62.28C51.9048 62.28 52.0848 62.08 52.3848 58.74L53.1448 50.02ZM72.5798 50H74.3998V56.7L79.9598 50H82.1998L77.4798 55.62L83.2398 64H81.1798L76.3398 57L74.3998 59.3V64H72.5798V59.3L70.6398 57L65.7998 64H63.7398L69.4998 55.62L64.7798 50H67.0198L72.5798 56.7V50ZM94.8814 55.7C94.5014 52.76 92.6214 51.28 90.2014 51.28C87.0814 51.28 85.0014 53.3 85.0014 57C85.0014 60.78 87.1614 62.72 90.1614 62.72C92.9214 62.72 94.8614 61.08 95.4214 58.4L97.0814 59C96.1214 62.56 93.7214 64.32 90.1814 64.32C85.6014 64.32 83.2414 61.4 83.2414 57.04C83.2414 52.1 86.2814 49.68 90.1214 49.68C93.6414 49.68 96.0614 51.72 96.6014 55.28L94.8814 55.7ZM99.0906 50H100.891V57.38L107.551 50H109.711L104.531 55.7L110.751 64H108.711L103.391 56.98L100.911 59.7L100.891 59.68V64H99.0906V50ZM117.597 64.32C113.557 64.32 111.957 61.6 111.957 58.06V50.02H113.717V57.58C113.717 61.34 115.297 62.72 117.737 62.72C121.377 62.72 122.677 59.64 122.697 56.76L122.757 50H124.477V64H122.957L122.837 60.78H122.777C122.677 61.66 121.597 64.32 117.597 64.32ZM132.324 64.32C128.284 64.32 126.684 61.6 126.684 58.06V50.02H128.444V57.58C128.444 61.34 130.024 62.72 132.464 62.72C136.104 62.72 137.404 59.64 137.424 56.76L137.484 50H139.204V64H137.684L137.564 60.78H137.504C137.404 61.66 136.324 64.32 132.324 64.32ZM129.444 45.82L131.024 46.02C131.124 46.88 131.644 47.52 132.884 47.52C134.124 47.52 134.644 46.9 134.744 46.02L136.324 45.82C136.264 47.26 135.224 48.8 132.884 48.8C130.544 48.8 129.504 47.26 129.444 45.82Z" fill="black"/>
<path d="M20.6 73H21.5V76.69L24.83 73H25.91L23.32 75.85L26.43 80H25.41L22.75 76.49L21.51 77.85L21.5 77.84V80H20.6V73ZM31.2075 80L31.1075 78.58V77.24V77.19L31.1175 78.56L31.1075 78.58C30.6475 79.5 29.3275 80.15 28.2875 80.15C27.2175 80.15 26.1375 79.46 26.1375 78.19C26.1375 77.28 26.7775 76.45 27.8175 76.07C28.7375 75.74 30.2275 75.54 31.0975 75.54L31.1075 76.18H31.0975V75.49C31.0975 75.04 31.0675 73.64 29.1175 73.64C27.4275 73.64 27.1575 74.87 27.0175 75.48L26.1475 75.29C26.2575 74.61 26.8175 72.84 29.1575 72.84C31.1175 72.84 31.9975 74.06 31.9975 75.71V78.58C31.9975 79.03 31.9975 79.22 32.5975 79.22L33.0675 79.23V80H31.2075ZM27.0575 78.21C27.0575 78.7 27.2975 79.29 28.2875 79.29C29.6675 79.29 30.9975 78.17 31.1075 77.24L31.0975 76.18C30.5775 76.21 28.9575 76.53 28.0675 76.86C27.2575 77.16 27.0575 77.77 27.0575 78.21ZM37.6864 73H38.5964V76.35L41.3764 73H42.4964L40.1364 75.81L43.0164 80H41.9864L39.5664 76.5L38.5964 77.65V80H37.6864V77.65L36.7164 76.5L34.2964 80H33.2664L36.1464 75.81L33.7864 73H34.9064L37.6864 76.35V73ZM43.8972 76.63C43.9472 78.25 44.9072 79.36 46.4972 79.36C47.5872 79.36 48.6572 78.85 49.0772 77.39L49.8772 77.75C49.3672 79.51 47.9272 80.16 46.4972 80.16C44.4572 80.16 43.0172 78.75 43.0172 76.5C43.0172 74.25 44.4572 72.84 46.4972 72.84C48.6772 72.84 49.9572 74.21 49.8772 76.63H43.8972ZM43.9472 75.83H48.9872C48.8672 74.64 48.1672 73.64 46.4972 73.64C45.0972 73.64 44.1772 74.51 43.9472 75.83ZM59.7134 75.63C59.7134 74.28 59.2134 73.71 58.1334 73.71C56.7834 73.71 56.2934 74.6 56.2934 75.92V79.99H55.3934V76.07C55.3934 74.47 54.9634 73.68 53.7134 73.68C51.7734 73.68 51.7734 75.6 51.7734 75.97V80H50.8734V73H51.6234L51.7734 74.38C51.8634 73.88 52.5434 72.84 54.0034 72.84C55.0234 72.84 55.7034 73.36 55.9834 74.18C56.2634 73.61 57.0034 72.87 58.3134 72.87C59.7534 72.87 60.6134 73.76 60.6134 75.45V80.02H59.7134V75.63ZM67.3333 75.85C67.1433 74.38 66.2033 73.64 64.9933 73.64C63.4333 73.64 62.3933 74.65 62.3933 76.5C62.3933 78.39 63.4733 79.36 64.9733 79.36C66.3533 79.36 67.3233 78.54 67.6033 77.2L68.4333 77.5C67.9533 79.28 66.7533 80.16 64.9833 80.16C62.6933 80.16 61.5133 78.7 61.5133 76.52C61.5133 74.05 63.0333 72.84 64.9533 72.84C66.7133 72.84 67.9233 73.86 68.1933 75.64L67.3333 75.85ZM70.6579 78.46V80H68.9379V79.33L69.2079 79.32C69.8079 79.3 69.8079 79.1 69.8079 78.81C69.8079 77.96 69.8879 77.22 70.6479 76.76C69.8079 76.52 69.3079 75.91 69.3079 75C69.3079 73.81 70.1779 73.02 71.6479 73.01L73.8979 73H74.7979V80H73.8979V77.05H72.1079C70.8979 77.05 70.6579 77.84 70.6579 78.46ZM70.2279 75.07C70.2279 75.83 70.6579 76.27 71.8079 76.27H73.8979V73.79H71.8579C70.7179 73.79 70.2279 74.26 70.2279 75.07ZM86.6373 75.63C86.6373 74.28 86.1373 73.71 85.0573 73.71C83.7073 73.71 83.2173 74.6 83.2173 75.92V79.99H82.3173V76.07C82.3173 74.47 81.8873 73.68 80.6373 73.68C78.6973 73.68 78.6973 75.6 78.6973 75.97V80H77.7973V73H78.5473L78.6973 74.38C78.7873 73.88 79.4673 72.84 80.9273 72.84C81.9473 72.84 82.6273 73.36 82.9073 74.18C83.1873 73.61 83.9273 72.87 85.2373 72.87C86.6773 72.87 87.5373 73.76 87.5373 75.45V80.02H86.6373V75.63ZM89.3171 76.63C89.3671 78.25 90.3271 79.36 91.9171 79.36C93.0071 79.36 94.0771 78.85 94.4971 77.39L95.2971 77.75C94.7871 79.51 93.3471 80.16 91.9171 80.16C89.8771 80.16 88.4371 78.75 88.4371 76.5C88.4371 74.25 89.8771 72.84 91.9171 72.84C94.0971 72.84 95.3771 74.21 95.2971 76.63H89.3171ZM89.3671 75.83H94.4071C94.2871 74.64 93.5871 73.64 91.9171 73.64C90.5171 73.64 89.5971 74.51 89.3671 75.83ZM96.2934 80V73H101.623V73.83H97.1934V75.64H99.2734C101.423 75.64 101.883 77.1 101.883 77.84C101.883 78.43 101.533 80 99.2734 80H96.2934ZM97.1934 79.22C98.1034 79.21 99.2434 79.21 99.2734 79.21C100.653 79.19 101.063 78.49 101.063 77.82C101.063 77.12 100.553 76.42 99.2734 76.42C98.9434 76.42 97.7034 76.45 97.1934 76.43V79.22ZM103.565 76.63C103.615 78.25 104.575 79.36 106.165 79.36C107.255 79.36 108.325 78.85 108.745 77.39L109.545 77.75C109.035 79.51 107.595 80.16 106.165 80.16C104.125 80.16 102.685 78.75 102.685 76.5C102.685 74.25 104.125 72.84 106.165 72.84C108.345 72.84 109.625 74.21 109.545 76.63H103.565ZM103.615 75.83H108.655C108.535 74.64 107.835 73.64 106.165 73.64C104.765 73.64 103.845 74.51 103.615 75.83ZM115.058 80.16C113.038 80.16 112.238 78.8 112.238 77.03V73.01H113.118V76.79C113.118 78.67 113.908 79.36 115.128 79.36C116.948 79.36 117.598 77.82 117.608 76.38L117.638 73H118.498V80H117.738L117.678 78.39H117.648C117.598 78.83 117.058 80.16 115.058 80.16ZM121.498 73H122.398L124.438 73.01C126.548 73.02 126.888 74.05 126.888 74.74C126.888 75.68 126.188 76.18 125.618 76.32C126.428 76.37 127.218 76.93 127.218 78.08C127.218 79.06 126.638 79.98 124.748 79.99L122.398 80H121.498V73ZM122.398 79.22C123.338 79.21 124.538 79.21 124.818 79.2C125.538 79.18 126.388 78.96 126.388 78.02C126.388 77.18 125.698 76.62 124.718 76.62C123.848 76.62 122.828 76.63 122.398 76.62V79.22ZM122.398 75.97C122.868 75.96 123.948 75.99 124.338 75.99C125.518 75.99 126.068 75.5 126.068 74.84C126.068 74.1 125.368 73.83 124.718 73.81C124.458 73.8 123.238 73.8 122.398 73.79V75.97ZM128.897 76.63C128.947 78.25 129.907 79.36 131.497 79.36C132.587 79.36 133.657 78.85 134.077 77.39L134.877 77.75C134.367 79.51 132.927 80.16 131.497 80.16C129.457 80.16 128.017 78.75 128.017 76.5C128.017 74.25 129.457 72.84 131.497 72.84C133.677 72.84 134.957 74.21 134.877 76.63H128.897ZM128.947 75.83H133.987C133.867 74.64 133.167 73.64 131.497 73.64C130.097 73.64 129.177 74.51 128.947 75.83ZM135.873 73H136.773L139.053 73.01C141.113 73.02 141.463 74.57 141.463 75.19C141.463 75.9 141.003 77.37 139.053 77.37H136.773V80H135.873V73ZM136.773 76.58C137.303 76.56 138.653 76.59 138.903 76.59C140.153 76.59 140.583 75.89 140.583 75.19C140.583 74.52 140.193 73.82 139.053 73.8C139.033 73.8 137.713 73.8 136.773 73.79V76.58ZM142.163 73H143.063V75.98H146.983V73H147.883V80H146.983V76.81H143.063V80H142.163V73ZM152.366 80.16C150.226 80.16 148.886 78.75 148.886 76.5C148.886 74.25 150.226 72.84 152.366 72.84C154.506 72.84 155.846 74.25 155.846 76.5C155.846 78.75 154.506 80.16 152.366 80.16ZM149.766 76.5C149.766 78.26 150.766 79.36 152.366 79.36C153.966 79.36 154.966 78.26 154.966 76.5C154.966 74.74 153.966 73.64 152.366 73.64C150.766 73.64 149.766 74.74 149.766 76.5ZM156.85 73H157.86L160.61 79.07L163.36 73H164.37V80H163.47V74.69L161.06 80H160.16L157.75 74.69V80H156.85V73ZM170.241 73H171.161L168.581 79.04C168.031 80.34 166.721 80.17 166.111 80.17V79.33C166.951 79.33 167.511 79.4 167.911 78.46L168.101 78.01L165.071 73H166.061L168.501 77.07L170.241 73ZM179.277 75.85C179.087 74.38 178.147 73.64 176.937 73.64C175.377 73.64 174.337 74.65 174.337 76.5C174.337 78.39 175.417 79.36 176.917 79.36C178.297 79.36 179.267 78.54 179.547 77.2L180.377 77.5C179.897 79.28 178.697 80.16 176.927 80.16C174.637 80.16 173.457 78.7 173.457 76.52C173.457 74.05 174.977 72.84 176.897 72.84C178.657 72.84 179.867 73.86 180.137 75.64L179.277 75.85ZM184.821 72.84C186.841 72.84 187.641 74.2 187.641 75.97V79.99H186.761V76.21C186.761 74.33 185.971 73.64 184.751 73.64C182.931 73.64 182.281 75.18 182.271 76.62L182.241 80H181.381V73H182.141L182.201 74.61H182.231C182.281 74.17 182.821 72.84 184.821 72.84ZM193.415 73H194.335L191.755 79.04C191.205 80.34 189.895 80.17 189.285 80.17V79.33C190.125 79.33 190.685 79.4 191.085 78.46L191.275 78.01L188.245 73H189.235L191.675 77.07L193.415 73ZM203.874 75.63C203.874 74.28 203.374 73.71 202.294 73.71C200.944 73.71 200.454 74.6 200.454 75.92V79.99H199.554V76.07C199.554 74.47 199.124 73.68 197.874 73.68C195.934 73.68 195.934 75.6 195.934 75.97V80H195.034V73H195.784L195.934 74.38C196.024 73.88 196.704 72.84 198.164 72.84C199.184 72.84 199.864 73.36 200.144 74.18C200.424 73.61 201.164 72.87 202.474 72.87C203.914 72.87 204.774 73.76 204.774 75.45V80.02H203.874V75.63ZM205.873 73H206.773V75.98H210.693V73H211.593V80H210.693V76.81H206.773V80H205.873V73ZM215.517 80.16C213.497 80.16 212.697 78.8 212.697 77.03V73.01H213.577V76.79C213.577 78.67 214.367 79.36 215.587 79.36C217.407 79.36 218.057 77.82 218.067 76.38L218.097 73H218.957V80H218.197L218.137 78.39H218.107C218.057 78.83 217.517 80.16 215.517 80.16ZM220.161 73H221.061V76.69L224.391 73H225.471L222.881 75.85L225.991 80H224.971L222.311 76.49L221.071 77.85L221.061 77.84V80H220.161V73ZM231.364 73H232.284L229.704 79.04C229.154 80.34 227.844 80.17 227.234 80.17V79.33C228.074 79.33 228.634 79.4 229.034 78.46L229.224 78.01L226.194 73H227.184L229.624 77.07L231.364 73ZM240.4 75.85C240.21 74.38 239.27 73.64 238.06 73.64C236.5 73.64 235.46 74.65 235.46 76.5C235.46 78.39 236.54 79.36 238.04 79.36C239.42 79.36 240.39 78.54 240.67 77.2L241.5 77.5C241.02 79.28 239.82 80.16 238.05 80.16C235.76 80.16 234.58 78.7 234.58 76.52C234.58 74.05 236.1 72.84 238.02 72.84C239.78 72.84 240.99 73.86 241.26 75.64L240.4 75.85ZM247.174 80L247.074 78.58V77.24V77.19L247.084 78.56L247.074 78.58C246.614 79.5 245.294 80.15 244.254 80.15C243.184 80.15 242.104 79.46 242.104 78.19C242.104 77.28 242.744 76.45 243.784 76.07C244.704 75.74 246.194 75.54 247.064 75.54L247.074 76.18H247.064V75.49C247.064 75.04 247.034 73.64 245.084 73.64C243.394 73.64 243.124 74.87 242.984 75.48L242.114 75.29C242.224 74.61 242.784 72.84 245.124 72.84C247.084 72.84 247.964 74.06 247.964 75.71V78.58C247.964 79.03 247.964 79.22 248.564 79.22L249.034 79.23V80H247.174ZM243.024 78.21C243.024 78.7 243.264 79.29 244.254 79.29C245.634 79.29 246.964 78.17 247.074 77.24L247.064 76.18C246.544 76.21 244.924 76.53 244.034 76.86C243.224 77.16 243.024 77.77 243.024 78.21ZM249.633 73H250.643L253.393 79.07L256.143 73H257.153V80H256.253V74.69L253.843 80H252.943L250.533 74.69V80H249.633V73ZM261.634 80.16C259.494 80.16 258.154 78.75 258.154 76.5C258.154 74.25 259.494 72.84 261.634 72.84C263.774 72.84 265.114 74.25 265.114 76.5C265.114 78.75 263.774 80.16 261.634 80.16ZM259.034 76.5C259.034 78.26 260.034 79.36 261.634 79.36C263.234 79.36 264.234 78.26 264.234 76.5C264.234 74.74 263.234 73.64 261.634 73.64C260.034 73.64 259.034 74.74 259.034 76.5ZM266.798 76.63C266.848 78.25 267.808 79.36 269.398 79.36C270.488 79.36 271.558 78.85 271.978 77.39L272.778 77.75C272.268 79.51 270.828 80.16 269.398 80.16C267.358 80.16 265.918 78.75 265.918 76.5C265.918 74.25 267.358 72.84 269.398 72.84C271.578 72.84 272.858 74.21 272.778 76.63H266.798ZM266.848 75.83H271.888C271.768 74.64 271.068 73.64 269.398 73.64C267.998 73.64 267.078 74.51 266.848 75.83ZM20.6 85H21.5L23.54 85.01C25.65 85.02 25.99 86.05 25.99 86.74C25.99 87.68 25.29 88.18 24.72 88.32C25.53 88.37 26.32 88.93 26.32 90.08C26.32 91.06 25.74 91.98 23.85 91.99L21.5 92H20.6V85ZM21.5 91.22C22.44 91.21 23.64 91.21 23.92 91.2C24.64 91.18 25.49 90.96 25.49 90.02C25.49 89.18 24.8 88.62 23.82 88.62C22.95 88.62 21.93 88.63 21.5 88.62V91.22ZM21.5 87.97C21.97 87.96 23.05 87.99 23.44 87.99C24.62 87.99 25.17 87.5 25.17 86.84C25.17 86.1 24.47 85.83 23.82 85.81C23.56 85.8 22.34 85.8 21.5 85.79V87.97ZM27.3188 85H28.2188L30.4988 85.01C32.5588 85.02 32.9088 86.57 32.9088 87.19C32.9088 87.9 32.4488 89.37 30.4988 89.37H28.2188V92H27.3188V85ZM28.2188 88.58C28.7488 88.56 30.0988 88.59 30.3488 88.59C31.5988 88.59 32.0288 87.89 32.0288 87.19C32.0288 86.52 31.6388 85.82 30.4988 85.8C30.4788 85.8 29.1588 85.8 28.2188 85.79V88.58ZM34.0925 88.63C34.1425 90.25 35.1025 91.36 36.6925 91.36C37.7825 91.36 38.8525 90.85 39.2725 89.39L40.0725 89.75C39.5625 91.51 38.1225 92.16 36.6925 92.16C34.6525 92.16 33.2125 90.75 33.2125 88.5C33.2125 86.25 34.6525 84.84 36.6925 84.84C38.8725 84.84 40.1525 86.21 40.0725 88.63H34.0925ZM34.1425 87.83H39.1825C39.0625 86.64 38.3625 85.64 36.6925 85.64C35.2925 85.64 34.3725 86.51 34.1425 87.83ZM41.0688 85H42.0788L44.8288 91.07L47.5788 85H48.5888V92H47.6888V86.69L45.2788 92H44.3788L41.9688 86.69V92H41.0688V85ZM51.0095 90.46V92H49.2895V91.33L49.5595 91.32C50.1595 91.3 50.1595 91.1 50.1595 90.81C50.1595 89.96 50.2395 89.22 50.9995 88.76C50.1595 88.52 49.6595 87.91 49.6595 87C49.6595 85.81 50.5295 85.02 51.9995 85.01L54.2495 85H55.1495V92H54.2495V89.05H52.4595C51.2495 89.05 51.0095 89.84 51.0095 90.46ZM50.5795 87.07C50.5795 87.83 51.0095 88.27 52.1595 88.27H54.2495V85.79H52.2095C51.0695 85.79 50.5795 86.26 50.5795 87.07ZM61.4288 92.16C59.2888 92.16 57.9488 90.75 57.9488 88.5C57.9488 86.25 59.2888 84.84 61.4288 84.84C63.5688 84.84 64.9088 86.25 64.9088 88.5C64.9088 90.75 63.5688 92.16 61.4288 92.16ZM58.8288 88.5C58.8288 90.26 59.8288 91.36 61.4288 91.36C63.0288 91.36 64.0288 90.26 64.0288 88.5C64.0288 86.74 63.0288 85.64 61.4288 85.64C59.8288 85.64 58.8288 86.74 58.8288 88.5ZM65.9125 85H66.8125V88.69L70.1425 85H71.2225L68.6325 87.85L71.7425 92H70.7225L68.0625 88.49L66.8225 89.85L66.8125 89.84V92H65.9125V85ZM77.1157 85H78.0357L75.4557 91.04C74.9057 92.34 73.5957 92.17 72.9857 92.17V91.33C73.8257 91.33 74.3857 91.4 74.7857 90.46L74.9757 90.01L71.9457 85H72.9357L75.3757 89.07L77.1157 85ZM78.7348 85H79.6348V87.98H83.5548V85H84.4548V92H83.5548V88.81H79.6348V92H78.7348V85ZM90.3286 85H91.2486L88.6686 91.04C88.1186 92.34 86.8086 92.17 86.1986 92.17V91.33C87.0386 91.33 87.5986 91.4 87.9986 90.46L88.1886 90.01L85.1586 85H86.1486L88.5886 89.07L90.3286 85ZM100.788 87.63C100.788 86.28 100.288 85.71 99.2077 85.71C97.8577 85.71 97.3677 86.6 97.3677 87.92V91.99H96.4677V88.07C96.4677 86.47 96.0377 85.68 94.7877 85.68C92.8477 85.68 92.8477 87.6 92.8477 87.97V92H91.9477V85H92.6977L92.8477 86.38C92.9377 85.88 93.6177 84.84 95.0777 84.84C96.0977 84.84 96.7777 85.36 97.0577 86.18C97.3377 85.61 98.0777 84.87 99.3877 84.87C100.828 84.87 101.688 85.76 101.688 87.45V92.02H100.788V87.63ZM102.788 92V85H103.688V87.63H105.968C107.918 87.63 108.378 89.09 108.378 89.77C108.378 90.42 108.028 91.98 105.968 91.99L103.688 92H102.788ZM103.688 91.21C104.598 91.2 105.938 91.2 105.968 91.2C107.148 91.18 107.558 90.48 107.558 89.75C107.558 89.11 107.048 88.41 105.968 88.41C105.478 88.41 104.198 88.44 103.688 88.42V91.21ZM114.501 87.85C114.311 86.38 113.371 85.64 112.161 85.64C110.601 85.64 109.561 86.65 109.561 88.5C109.561 90.39 110.641 91.36 112.141 91.36C113.521 91.36 114.491 90.54 114.771 89.2L115.601 89.5C115.121 91.28 113.921 92.16 112.151 92.16C109.861 92.16 108.681 90.7 108.681 88.52C108.681 86.05 110.201 84.84 112.121 84.84C113.881 84.84 115.091 85.86 115.361 87.64L114.501 87.85ZM117.826 90.46V92H116.106V91.33L116.376 91.32C116.976 91.3 116.976 91.1 116.976 90.81C116.976 89.96 117.056 89.22 117.816 88.76C116.976 88.52 116.476 87.91 116.476 87C116.476 85.81 117.346 85.02 118.816 85.01L121.066 85H121.966V92H121.066V89.05H119.276C118.066 89.05 117.826 89.84 117.826 90.46ZM117.396 87.07C117.396 87.83 117.826 88.27 118.976 88.27H121.066V85.79H119.026C117.886 85.79 117.396 86.26 117.396 87.07ZM124.965 85H125.865L127.905 85.01C130.015 85.02 130.355 86.05 130.355 86.74C130.355 87.68 129.655 88.18 129.085 88.32C129.895 88.37 130.685 88.93 130.685 90.08C130.685 91.06 130.105 91.98 128.215 91.99L125.865 92H124.965V85ZM125.865 91.22C126.805 91.21 128.005 91.21 128.285 91.2C129.005 91.18 129.855 90.96 129.855 90.02C129.855 89.18 129.165 88.62 128.185 88.62C127.315 88.62 126.295 88.63 125.865 88.62V91.22ZM125.865 87.97C126.335 87.96 127.415 87.99 127.805 87.99C128.985 87.99 129.535 87.5 129.535 86.84C129.535 86.1 128.835 85.83 128.185 85.81C127.925 85.8 126.705 85.8 125.865 85.79V87.97ZM135.211 87.97C137.121 87.97 137.511 87.3 137.511 86.78C137.511 86.21 136.961 85.65 135.771 85.65C134.621 85.65 134.091 86.28 134.091 87.42L133.211 87.3C133.211 86.02 133.951 84.84 135.811 84.84C137.561 84.84 138.341 85.79 138.341 86.8C138.341 87.62 137.801 88.28 136.541 88.38V88.42C137.561 88.47 138.341 89.14 138.341 89.98C138.341 91.02 137.721 92.16 135.791 92.16C133.861 92.16 133.031 90.89 133.031 89.38L133.911 89.26C133.891 90.57 134.501 91.36 135.751 91.36C137.021 91.36 137.511 90.7 137.511 90.02C137.511 89.46 137.071 88.78 135.211 88.78V87.97ZM144.01 92L143.91 90.58V89.24V89.19L143.92 90.56L143.91 90.58C143.45 91.5 142.13 92.15 141.09 92.15C140.02 92.15 138.94 91.46 138.94 90.19C138.94 89.28 139.58 88.45 140.62 88.07C141.54 87.74 143.03 87.54 143.9 87.54L143.91 88.18H143.9V87.49C143.9 87.04 143.87 85.64 141.92 85.64C140.23 85.64 139.96 86.87 139.82 87.48L138.95 87.29C139.06 86.61 139.62 84.84 141.96 84.84C143.92 84.84 144.8 86.06 144.8 87.71V90.58C144.8 91.03 144.8 91.22 145.4 91.22L145.87 91.23V92H144.01ZM139.86 90.21C139.86 90.7 140.1 91.29 141.09 91.29C142.47 91.29 143.8 90.17 143.91 89.24L143.9 88.18C143.38 88.21 141.76 88.53 140.87 88.86C140.06 89.16 139.86 89.77 139.86 90.21ZM150.839 92L148.419 88.3L148.919 87.59L149.419 88.3L146.999 92H145.969L148.399 88.3L145.999 85H147.019L148.919 87.59L150.809 85H151.839L149.439 88.3L151.869 92H150.839ZM152.573 85H153.473L155.513 85.01C157.623 85.02 157.963 86.05 157.963 86.74C157.963 87.68 157.263 88.18 156.693 88.32C157.503 88.37 158.293 88.93 158.293 90.08C158.293 91.06 157.713 91.98 155.823 91.99L153.473 92H152.573V85ZM153.473 91.22C154.413 91.21 155.613 91.21 155.893 91.2C156.613 91.18 157.463 90.96 157.463 90.02C157.463 89.18 156.773 88.62 155.793 88.62C154.923 88.62 153.903 88.63 153.473 88.62V91.22ZM153.473 87.97C153.943 87.96 155.023 87.99 155.413 87.99C156.593 87.99 157.143 87.5 157.143 86.84C157.143 86.1 156.443 85.83 155.793 85.81C155.533 85.8 154.313 85.8 153.473 85.79V87.97ZM163.961 92L163.861 90.58V89.24V89.19L163.871 90.56L163.861 90.58C163.401 91.5 162.081 92.15 161.041 92.15C159.971 92.15 158.891 91.46 158.891 90.19C158.891 89.28 159.531 88.45 160.571 88.07C161.491 87.74 162.981 87.54 163.851 87.54L163.861 88.18H163.851V87.49C163.851 87.04 163.821 85.64 161.871 85.64C160.181 85.64 159.911 86.87 159.771 87.48L158.901 87.29C159.011 86.61 159.571 84.84 161.911 84.84C163.871 84.84 164.751 86.06 164.751 87.71V90.58C164.751 91.03 164.751 91.22 165.351 91.22L165.821 91.23V92H163.961ZM159.811 90.21C159.811 90.7 160.051 91.29 161.041 91.29C162.421 91.29 163.751 90.17 163.861 89.24L163.851 88.18C163.331 88.21 161.711 88.53 160.821 88.86C160.011 89.16 159.811 89.77 159.811 90.21ZM175.26 87.63C175.26 86.28 174.76 85.71 173.68 85.71C172.33 85.71 171.84 86.6 171.84 87.92V91.99H170.94V88.07C170.94 86.47 170.51 85.68 169.26 85.68C167.32 85.68 167.32 87.6 167.32 87.97V92H166.42V85H167.17L167.32 86.38C167.41 85.88 168.09 84.84 169.55 84.84C170.57 84.84 171.25 85.36 171.53 86.18C171.81 85.61 172.55 84.87 173.86 84.87C175.3 84.87 176.16 85.76 176.16 87.45V92.02H175.26V87.63ZM177.26 92V85H178.16V87.63H180.44C182.39 87.63 182.85 89.09 182.85 89.77C182.85 90.42 182.5 91.98 180.44 91.99L178.16 92H177.26ZM178.16 91.21C179.07 91.2 180.41 91.2 180.44 91.2C181.62 91.18 182.03 90.48 182.03 89.75C182.03 89.11 181.52 88.41 180.44 88.41C179.95 88.41 178.67 88.44 178.16 88.42V91.21ZM183.75 92V85H184.65V92H183.75ZM185.854 85H186.754L188.794 85.01C190.904 85.02 191.244 86.05 191.244 86.74C191.244 87.68 190.544 88.18 189.974 88.32C190.784 88.37 191.574 88.93 191.574 90.08C191.574 91.06 190.994 91.98 189.104 91.99L186.754 92H185.854V85ZM186.754 91.22C187.694 91.21 188.894 91.21 189.174 91.2C189.894 91.18 190.744 90.96 190.744 90.02C190.744 89.18 190.054 88.62 189.074 88.62C188.204 88.62 187.184 88.63 186.754 88.62V91.22ZM186.754 87.97C187.224 87.96 188.304 87.99 188.694 87.99C189.874 87.99 190.424 87.5 190.424 86.84C190.424 86.1 189.724 85.83 189.074 85.81C188.814 85.8 187.594 85.8 186.754 85.79V87.97ZM197.243 92L197.143 90.58V89.24V89.19L197.153 90.56L197.143 90.58C196.683 91.5 195.363 92.15 194.323 92.15C193.253 92.15 192.173 91.46 192.173 90.19C192.173 89.28 192.813 88.45 193.853 88.07C194.773 87.74 196.263 87.54 197.133 87.54L197.143 88.18H197.133V87.49C197.133 87.04 197.103 85.64 195.153 85.64C193.463 85.64 193.193 86.87 193.053 87.48L192.183 87.29C192.293 86.61 192.853 84.84 195.193 84.84C197.153 84.84 198.033 86.06 198.033 87.71V90.58C198.033 91.03 198.033 91.22 198.633 91.22L199.103 91.23V92H197.243ZM193.093 90.21C193.093 90.7 193.333 91.29 194.323 91.29C195.703 91.29 197.033 90.17 197.143 89.24L197.133 88.18C196.613 88.21 194.993 88.53 194.103 88.86C193.293 89.16 193.093 89.77 193.093 90.21ZM203.082 88.5C203.082 90.26 203.882 91.36 205.182 91.36C206.682 91.36 207.282 90.27 207.282 88.5C207.282 86.74 206.682 85.64 205.182 85.64C203.882 85.64 203.082 86.74 203.082 88.5ZM199.702 92V85H200.602V87.98H202.222C202.392 86.03 203.492 84.84 205.182 84.84C207.222 84.84 208.162 86.25 208.162 88.5C208.162 90.75 207.222 92.16 205.182 92.16C203.432 92.16 202.312 90.88 202.212 88.81H200.602V92H199.702ZM210.064 85V91.15H212.684V85H213.584V91.15H216.184V85H217.084V91.15H218.574V92L218.474 93.74H217.624L217.724 92H209.164V85H210.064ZM221.797 92.16C219.777 92.16 218.977 90.8 218.977 89.03V85.01H219.857V88.79C219.857 90.67 220.647 91.36 221.867 91.36C223.687 91.36 224.337 89.82 224.347 88.38L224.377 85H225.237V92H224.477L224.417 90.39H224.387C224.337 90.83 223.797 92.16 221.797 92.16ZM227.12 88.63C227.17 90.25 228.13 91.36 229.72 91.36C230.81 91.36 231.88 90.85 232.3 89.39L233.1 89.75C232.59 91.51 231.15 92.16 229.72 92.16C227.68 92.16 226.24 90.75 226.24 88.5C226.24 86.25 227.68 84.84 229.72 84.84C231.9 84.84 233.18 86.21 233.1 88.63H227.12ZM227.17 87.83H232.21C232.09 86.64 231.39 85.64 229.72 85.64C228.32 85.64 227.4 86.51 227.17 87.83ZM24.04 96.84C26.06 96.84 26.86 98.2 26.86 99.97V103.99H25.98V100.21C25.98 98.33 25.19 97.64 23.97 97.64C22.15 97.64 21.5 99.18 21.49 100.62L21.46 104H20.6V97H21.36L21.42 98.61H21.45C21.5 98.17 22.04 96.84 24.04 96.84ZM27.9633 97H28.8633L31.1433 97.01C33.2033 97.02 33.5533 98.57 33.5533 99.19C33.5533 99.9 33.0933 101.37 31.1433 101.37H28.8633V104H27.9633V97ZM28.8633 100.58C29.3933 100.56 30.7433 100.59 30.9933 100.59C32.2433 100.59 32.6733 99.89 32.6733 99.19C32.6733 98.52 32.2833 97.82 31.1433 97.8C31.1233 97.8 29.8033 97.8 28.8633 97.79V100.58ZM36.9723 104.16C34.9523 104.16 34.1523 102.8 34.1523 101.03V97.01H35.0323V100.79C35.0323 102.67 35.8223 103.36 37.0423 103.36C38.8623 103.36 39.5123 101.82 39.5223 100.38L39.5523 97H40.4123V104H39.6523L39.5923 102.39H39.5623C39.5123 102.83 38.9723 104.16 36.9723 104.16ZM41.6156 97H42.5156V100.69L45.8456 97H46.9256L44.3356 99.85L47.4456 104H46.4256L43.7656 100.49L42.5256 101.85L42.5156 101.84V104H41.6156V97ZM49.6388 97.01H54.1388V104.01H53.2388V97.84H50.4188L50.0488 102.09C49.8188 104.13 48.6788 104.01 47.9488 104.01V103.14C49.0188 103.14 49.1088 103.04 49.2588 101.37L49.6388 97.01ZM58.7163 100.5C58.7163 102.26 59.5163 103.36 60.8163 103.36C62.3163 103.36 62.9163 102.27 62.9163 100.5C62.9163 98.74 62.3163 97.64 60.8163 97.64C59.5163 97.64 58.7163 98.74 58.7163 100.5ZM55.3363 104V97H56.2363V99.98H57.8563C58.0263 98.03 59.1263 96.84 60.8163 96.84C62.8563 96.84 63.7963 98.25 63.7963 100.5C63.7963 102.75 62.8563 104.16 60.8163 104.16C59.0663 104.16 57.9463 102.88 57.8463 100.81H56.2363V104H55.3363ZM66.7692 101.67C64.8592 101.67 64.2992 100.61 64.2992 99.13V97H65.1792V99.11C65.1792 100.4 65.6192 100.82 66.6992 100.82C68.4092 100.82 69.0492 100.22 69.0492 100.22V97H69.9492V104H69.0492V101.12C69.0492 101.12 68.4892 101.67 66.7692 101.67ZM71.8269 100.63C71.8769 102.25 72.8369 103.36 74.4269 103.36C75.5169 103.36 76.5869 102.85 77.0069 101.39L77.8069 101.75C77.2969 103.51 75.8569 104.16 74.4269 104.16C72.3869 104.16 70.9469 102.75 70.9469 100.5C70.9469 98.25 72.3869 96.84 74.4269 96.84C76.6069 96.84 77.8869 98.21 77.8069 100.63H71.8269ZM71.8769 99.83H76.9169C76.7969 98.64 76.0969 97.64 74.4269 97.64C73.0269 97.64 72.1069 98.51 71.8769 99.83ZM78.8031 97H79.7031V99.98H83.6231V97H84.5231V104H83.6231V100.81H79.7031V104H78.8031V97ZM88.447 104.16C86.427 104.16 85.627 102.8 85.627 101.03V97.01H86.507V100.79C86.507 102.67 87.297 103.36 88.517 103.36C90.337 103.36 90.987 101.82 90.997 100.38L91.027 97H91.887V104H91.127L91.067 102.39H91.037C90.987 102.83 90.447 104.16 88.447 104.16ZM94.3102 102.46V104H92.5902V103.33L92.8602 103.32C93.4602 103.3 93.4602 103.1 93.4602 102.81C93.4602 101.96 93.5402 101.22 94.3002 100.76C93.4602 100.52 92.9602 99.91 92.9602 99C92.9602 97.81 93.8302 97.02 95.3002 97.01L97.5502 97H98.4502V104H97.5502V101.05H95.7602C94.5502 101.05 94.3102 101.84 94.3102 102.46ZM93.8802 99.07C93.8802 99.83 94.3102 100.27 95.4602 100.27H97.5502V97.79H95.5102C94.3702 97.79 93.8802 98.26 93.8802 99.07ZM101.45 97H102.35L104.39 97.01C106.5 97.02 106.84 98.05 106.84 98.74C106.84 99.68 106.14 100.18 105.57 100.32C106.38 100.37 107.17 100.93 107.17 102.08C107.17 103.06 106.59 103.98 104.7 103.99L102.35 104H101.45V97ZM102.35 103.22C103.29 103.21 104.49 103.21 104.77 103.2C105.49 103.18 106.34 102.96 106.34 102.02C106.34 101.18 105.65 100.62 104.67 100.62C103.8 100.62 102.78 100.63 102.35 100.62V103.22ZM102.35 99.97C102.82 99.96 103.9 99.99 104.29 99.99C105.47 99.99 106.02 99.5 106.02 98.84C106.02 98.1 105.32 97.83 104.67 97.81C104.41 97.8 103.19 97.8 102.35 97.79V99.97ZM109.965 97H110.865V99.98H114.785V97H115.685V104H114.785V100.81H110.865V104H109.965V97ZM117.569 100.63C117.619 102.25 118.579 103.36 120.169 103.36C121.259 103.36 122.329 102.85 122.749 101.39L123.549 101.75C123.039 103.51 121.599 104.16 120.169 104.16C118.129 104.16 116.689 102.75 116.689 100.5C116.689 98.25 118.129 96.84 120.169 96.84C122.349 96.84 123.629 98.21 123.549 100.63H117.569ZM117.619 99.83H122.659C122.539 98.64 121.839 97.64 120.169 97.64C118.769 97.64 117.849 98.51 117.619 99.83ZM124.545 104V97H129.875V97.83H125.445V99.64H127.525C129.675 99.64 130.135 101.1 130.135 101.84C130.135 102.43 129.785 104 127.525 104H124.545ZM125.445 103.22C126.355 103.21 127.495 103.21 127.525 103.21C128.905 103.19 129.315 102.49 129.315 101.82C129.315 101.12 128.805 100.42 127.525 100.42C127.195 100.42 125.955 100.45 125.445 100.43V103.22ZM134.417 104.16C132.277 104.16 130.937 102.75 130.937 100.5C130.937 98.25 132.277 96.84 134.417 96.84C136.557 96.84 137.897 98.25 137.897 100.5C137.897 102.75 136.557 104.16 134.417 104.16ZM131.817 100.5C131.817 102.26 132.817 103.36 134.417 103.36C136.017 103.36 137.017 102.26 137.017 100.5C137.017 98.74 136.017 97.64 134.417 97.64C132.817 97.64 131.817 98.74 131.817 100.5ZM140.391 97.01H144.891V104.01H143.991V97.84H141.171L140.801 102.09C140.571 104.13 139.431 104.01 138.701 104.01V103.14C139.771 103.14 139.861 103.04 140.011 101.37L140.391 97.01ZM146.088 104V97H146.988V99.63H149.268C151.218 99.63 151.678 101.09 151.678 101.77C151.678 102.42 151.328 103.98 149.268 103.99L146.988 104H146.088ZM146.988 103.21C147.898 103.2 149.238 103.2 149.268 103.2C150.448 103.18 150.858 102.48 150.858 101.75C150.858 101.11 150.348 100.41 149.268 100.41C148.778 100.41 147.498 100.44 146.988 100.42V103.21ZM153.277 97V103.15H155.897V97H156.797V103.15H159.397V97H160.297V104H152.377V97H153.277ZM164.778 104.16C162.638 104.16 161.298 102.75 161.298 100.5C161.298 98.25 162.638 96.84 164.778 96.84C166.918 96.84 168.258 98.25 168.258 100.5C168.258 102.75 166.918 104.16 164.778 104.16ZM162.178 100.5C162.178 102.26 163.178 103.36 164.778 103.36C166.378 103.36 167.378 102.26 167.378 100.5C167.378 98.74 166.378 97.64 164.778 97.64C163.178 97.64 162.178 98.74 162.178 100.5ZM169.262 97H170.272L173.022 103.07L175.772 97H176.782V104H175.882V98.69L173.472 104H172.572L170.162 98.69V104H169.262V97ZM179.78 97H184.8V97.83H180.68V104H179.78V97ZM188.079 104.16C185.939 104.16 184.599 102.75 184.599 100.5C184.599 98.25 185.939 96.84 188.079 96.84C190.219 96.84 191.559 98.25 191.559 100.5C191.559 102.75 190.219 104.16 188.079 104.16ZM185.479 100.5C185.479 102.26 186.479 103.36 188.079 103.36C189.679 103.36 190.679 102.26 190.679 100.5C190.679 98.74 189.679 97.64 188.079 97.64C186.479 97.64 185.479 98.74 185.479 100.5ZM192.563 97H193.463L195.743 97.01C197.803 97.02 198.153 98.57 198.153 99.19C198.153 99.9 197.693 101.37 195.743 101.37H193.463V104H192.563V97ZM193.463 100.58C193.993 100.56 195.343 100.59 195.593 100.59C196.843 100.59 197.273 99.89 197.273 99.19C197.273 98.52 196.883 97.82 195.743 97.8C195.723 97.8 194.403 97.8 193.463 97.79V100.58ZM201.937 104.16C199.797 104.16 198.457 102.75 198.457 100.5C198.457 98.25 199.797 96.84 201.937 96.84C204.077 96.84 205.417 98.25 205.417 100.5C205.417 102.75 204.077 104.16 201.937 104.16ZM199.337 100.5C199.337 102.26 200.337 103.36 201.937 103.36C203.537 103.36 204.537 102.26 204.537 100.5C204.537 98.74 203.537 97.64 201.937 97.64C200.337 97.64 199.337 98.74 199.337 100.5ZM208.44 97H212.94V103.15H214.26V104L214.16 105.74H213.31L213.41 104H206.87L206.97 105.74H206.12L206.02 104V103.15H206.75C207.41 103.15 207.93 102.87 208.06 101.36L208.44 97ZM208.42 103.15H212.04V97.83H209.22L208.85 101.87C208.75 102.43 208.6 102.84 208.42 103.15ZM215.343 100.63C215.393 102.25 216.353 103.36 217.943 103.36C219.033 103.36 220.103 102.85 220.523 101.39L221.323 101.75C220.813 103.51 219.373 104.16 217.943 104.16C215.903 104.16 214.463 102.75 214.463 100.5C214.463 98.25 215.903 96.84 217.943 96.84C220.123 96.84 221.403 98.21 221.323 100.63H215.343ZM215.393 99.83H220.433C220.312 98.64 219.613 97.64 217.943 97.64C216.543 97.64 215.623 98.51 215.393 99.83ZM224.116 97H225.016V99.98H228.936V97H229.836V104H228.936V100.81H225.016V104H224.116V97ZM235.709 104L235.609 102.58V101.24V101.19L235.619 102.56L235.609 102.58C235.149 103.5 233.829 104.15 232.789 104.15C231.719 104.15 230.639 103.46 230.639 102.19C230.639 101.28 231.279 100.45 232.319 100.07C233.239 99.74 234.729 99.54 235.599 99.54L235.609 100.18H235.599V99.49C235.599 99.04 235.569 97.64 233.619 97.64C231.929 97.64 231.659 98.87 231.519 99.48L230.649 99.29C230.759 98.61 231.319 96.84 233.659 96.84C235.619 96.84 236.499 98.06 236.499 99.71V102.58C236.499 103.03 236.499 103.22 237.099 103.22L237.569 103.23V104H235.709ZM231.559 102.21C231.559 102.7 231.799 103.29 232.789 103.29C234.169 103.29 235.499 102.17 235.609 101.24L235.599 100.18C235.079 100.21 233.459 100.53 232.569 100.86C231.759 101.16 231.559 101.77 231.559 102.21ZM239.965 104V97H245.295V97.83H240.865V99.64H242.945C245.095 99.64 245.555 101.1 245.555 101.84C245.555 102.43 245.205 104 242.945 104H239.965ZM240.865 103.22C241.775 103.21 242.915 103.21 242.945 103.21C244.325 103.19 244.735 102.49 244.735 101.82C244.735 101.12 244.225 100.42 242.945 100.42C242.615 100.42 241.375 100.45 240.865 100.43V103.22ZM247.237 100.63C247.287 102.25 248.247 103.36 249.837 103.36C250.927 103.36 251.997 102.85 252.417 101.39L253.217 101.75C252.707 103.51 251.267 104.16 249.837 104.16C247.797 104.16 246.357 102.75 246.357 100.5C246.357 98.25 247.797 96.84 249.837 96.84C252.017 96.84 253.297 98.21 253.217 100.63H247.237ZM247.287 99.83H252.327C252.207 98.64 251.507 97.64 249.837 97.64C248.437 97.64 247.517 98.51 247.287 99.83ZM254.213 97H255.113L257.393 97.01C259.453 97.02 259.803 98.57 259.803 99.19C259.803 99.9 259.343 101.37 257.393 101.37H255.113V104H254.213V97ZM255.113 100.58C255.643 100.56 256.993 100.59 257.243 100.59C258.493 100.59 258.923 99.89 258.923 99.19C258.923 98.52 258.533 97.82 257.393 97.8C257.373 97.8 256.053 97.8 255.113 97.79V100.58ZM260.987 100.63C261.037 102.25 261.997 103.36 263.587 103.36C264.677 103.36 265.747 102.85 266.167 101.39L266.967 101.75C266.457 103.51 265.017 104.16 263.587 104.16C261.547 104.16 260.107 102.75 260.107 100.5C260.107 98.25 261.547 96.84 263.587 96.84C265.767 96.84 267.047 98.21 266.967 100.63H260.987ZM261.037 99.83H266.077C265.957 98.64 265.257 97.64 263.587 97.64C262.187 97.64 261.267 98.51 261.037 99.83ZM267.963 97H272.983V97.83H268.863V104H267.963V97ZM278.249 97H279.169L276.589 103.04C276.039 104.34 274.729 104.17 274.119 104.17V103.33C274.959 103.33 275.519 103.4 275.919 102.46L276.109 102.01L273.079 97H274.069L276.509 101.07L278.249 97ZM20.6 109H21.5L23.54 109.01C25.65 109.02 25.99 110.05 25.99 110.74C25.99 111.68 25.29 112.18 24.72 112.32C25.53 112.37 26.32 112.93 26.32 114.08C26.32 115.06 25.74 115.98 23.85 115.99L21.5 116H20.6V109ZM21.5 115.22C22.44 115.21 23.64 115.21 23.92 115.2C24.64 115.18 25.49 114.96 25.49 114.02C25.49 113.18 24.8 112.62 23.82 112.62C22.95 112.62 21.93 112.63 21.5 112.62V115.22ZM21.5 111.97C21.97 111.96 23.05 111.99 23.44 111.99C24.62 111.99 25.17 111.5 25.17 110.84C25.17 110.1 24.47 109.83 23.82 109.81C23.56 109.8 22.34 109.8 21.5 109.79V111.97ZM27.9988 112.63C28.0488 114.25 29.0088 115.36 30.5988 115.36C31.6888 115.36 32.7588 114.85 33.1788 113.39L33.9788 113.75C33.4688 115.51 32.0288 116.16 30.5988 116.16C28.5588 116.16 27.1188 114.75 27.1188 112.5C27.1188 110.25 28.5588 108.84 30.5988 108.84C32.7788 108.84 34.0588 110.21 33.9788 112.63H27.9988ZM28.0488 111.83H33.0888C32.9688 110.64 32.2688 109.64 30.5988 109.64C29.1988 109.64 28.2788 110.51 28.0488 111.83ZM36.465 109.01H40.965V116.01H40.065V109.84H37.245L36.875 114.09C36.645 116.13 35.505 116.01 34.775 116.01V115.14C35.845 115.14 35.935 115.04 36.085 113.37L36.465 109.01ZM44.8825 116.16C42.8625 116.16 42.0625 114.8 42.0625 113.03V109.01H42.9425V112.79C42.9425 114.67 43.7325 115.36 44.9525 115.36C46.7725 115.36 47.4225 113.82 47.4325 112.38L47.4625 109H48.3225V116H47.5625L47.5025 114.39H47.4725C47.4225 114.83 46.8825 116.16 44.8825 116.16ZM49.5258 109H50.4258V112.69L53.7558 109H54.8358L52.2458 111.85L55.3558 116H54.3358L51.6758 112.49L50.4358 113.85L50.4258 113.84V116H49.5258V109ZM58.7433 116.16C56.6033 116.16 55.2633 114.75 55.2633 112.5C55.2633 110.25 56.6033 108.84 58.7433 108.84C60.8833 108.84 62.2233 110.25 62.2233 112.5C62.2233 114.75 60.8833 116.16 58.7433 116.16ZM56.1433 112.5C56.1433 114.26 57.1433 115.36 58.7433 115.36C60.3433 115.36 61.3433 114.26 61.3433 112.5C61.3433 110.74 60.3433 109.64 58.7433 109.64C57.1433 109.64 56.1433 110.74 56.1433 112.5ZM65.947 116.16C63.927 116.16 63.127 114.8 63.127 113.03V109.01H64.007V112.79C64.007 114.67 64.797 115.36 66.017 115.36C67.837 115.36 68.487 113.82 68.497 112.38L68.527 109H69.387V116H68.627L68.567 114.39H68.537C68.487 114.83 67.947 116.16 65.947 116.16ZM64.507 106.91L65.297 107.01C65.347 107.44 65.607 107.76 66.227 107.76C66.847 107.76 67.107 107.45 67.157 107.01L67.947 106.91C67.917 107.63 67.397 108.4 66.227 108.4C65.057 108.4 64.537 107.63 64.507 106.91ZM72.3871 109H73.2871L75.5671 109.01C77.6271 109.02 77.9771 110.57 77.9771 111.19C77.9771 111.9 77.5171 113.37 75.5671 113.37H73.2871V116H72.3871V109ZM73.2871 112.58C73.8171 112.56 75.1671 112.59 75.4171 112.59C76.6671 112.59 77.0971 111.89 77.0971 111.19C77.0971 110.52 76.7071 109.82 75.5671 109.8C75.5471 109.8 74.2271 109.8 73.2871 109.79V112.58ZM79.1609 112.63C79.2109 114.25 80.1709 115.36 81.7609 115.36C82.8509 115.36 83.9209 114.85 84.3409 113.39L85.1409 113.75C84.6309 115.51 83.1909 116.16 81.7609 116.16C79.7209 116.16 78.2809 114.75 78.2809 112.5C78.2809 110.25 79.7209 108.84 81.7609 108.84C83.9409 108.84 85.2209 110.21 85.1409 112.63H79.1609ZM79.2109 111.83H84.2509C84.1309 110.64 83.4309 109.64 81.7609 109.64C80.3609 109.64 79.4409 110.51 79.2109 111.83ZM86.1371 109H87.0371V112.69L90.3671 109H91.4471L88.8571 111.85L91.9671 116H90.9471L88.2871 112.49L87.0471 113.85L87.0371 113.84V116H86.1371V109ZM95.3903 116.16C93.3703 116.16 92.5703 114.8 92.5703 113.03V109.01H93.4503V112.79C93.4503 114.67 94.2403 115.36 95.4603 115.36C97.2803 115.36 97.9303 113.82 97.9403 112.38L97.9703 109H98.8303V116H98.0703L98.0103 114.39H97.9803C97.9303 114.83 97.3903 116.16 95.3903 116.16ZM101.83 109H102.73L104.77 109.01C106.88 109.02 107.22 110.05 107.22 110.74C107.22 111.68 106.52 112.18 105.95 112.32C106.76 112.37 107.55 112.93 107.55 114.08C107.55 115.06 106.97 115.98 105.08 115.99L102.73 116H101.83V109ZM102.73 115.22C103.67 115.21 104.87 115.21 105.15 115.2C105.87 115.18 106.72 114.96 106.72 114.02C106.72 113.18 106.03 112.62 105.05 112.62C104.18 112.62 103.16 112.63 102.73 112.62V115.22ZM102.73 111.97C103.2 111.96 104.28 111.99 104.67 111.99C105.85 111.99 106.4 111.5 106.4 110.84C106.4 110.1 105.7 109.83 105.05 109.81C104.79 109.8 103.57 109.8 102.73 109.79V111.97ZM111.829 116.16C109.689 116.16 108.349 114.75 108.349 112.5C108.349 110.25 109.689 108.84 111.829 108.84C113.969 108.84 115.309 110.25 115.309 112.5C115.309 114.75 113.969 116.16 111.829 116.16ZM109.229 112.5C109.229 114.26 110.229 115.36 111.829 115.36C113.429 115.36 114.429 114.26 114.429 112.5C114.429 110.74 113.429 109.64 111.829 109.64C110.229 109.64 109.229 110.74 109.229 112.5ZM117.803 109.01H122.303V116.01H121.403V109.84H118.583L118.213 114.09C117.983 116.13 116.843 116.01 116.113 116.01V115.14C117.183 115.14 117.273 115.04 117.423 113.37L117.803 109.01ZM123.5 109H128.52V109.83H124.4V116H123.5V109ZM131.836 116.16C129.816 116.16 129.016 114.8 129.016 113.03V109.01H129.896V112.79C129.896 114.67 130.686 115.36 131.906 115.36C133.726 115.36 134.376 113.82 134.386 112.38L134.416 109H135.276V116H134.516L134.456 114.39H134.426C134.376 114.83 133.836 116.16 131.836 116.16Z" fill="black" fill-opacity="0.5"/>
<rect x="20" y="229" width="133" height="36" rx="6" fill="#477DFF"/>
<path d="M41.2 241H43L47.08 241.02C51.3 241.04 51.98 243.1 51.98 244.48C51.98 246.36 50.58 247.36 49.44 247.64C51.06 247.74 52.64 248.86 52.64 251.16C52.64 253.12 51.48 254.96 47.7 254.98L43 255H41.2V241ZM43 253.44C44.88 253.42 47.28 253.42 47.84 253.4C49.28 253.36 50.98 252.92 50.98 251.04C50.98 249.36 49.6 248.24 47.64 248.24C45.9 248.24 43.86 248.26 43 248.24V253.44ZM43 246.94C43.94 246.92 46.1 246.98 46.88 246.98C49.24 246.98 50.34 246 50.34 244.68C50.34 243.2 48.94 242.66 47.64 242.62C47.12 242.6 44.68 242.6 43 242.58V246.94ZM61.5175 240.68C65.5575 240.68 67.1575 243.4 67.1575 246.94V254.98H65.3975V247.42C65.3975 243.66 63.8175 242.28 61.3775 242.28C57.7375 242.28 56.4375 245.36 56.4175 248.24L56.3575 255H54.6375V241H56.1575L56.2775 244.22H56.3375C56.4375 243.34 57.5175 240.68 61.5175 240.68ZM70.7241 248.26C70.8241 251.5 72.7441 253.72 75.9241 253.72C78.1041 253.72 80.2441 252.7 81.0841 249.78L82.6841 250.5C81.6641 254.02 78.7841 255.32 75.9241 255.32C71.8441 255.32 68.9641 252.5 68.9641 248C68.9641 243.5 71.8441 240.68 75.9241 240.68C80.2841 240.68 82.8441 243.42 82.6841 248.26H70.7241ZM70.8241 246.66H80.9041C80.6641 244.28 79.2641 242.28 75.9241 242.28C73.1241 242.28 71.2841 244.02 70.8241 246.66ZM84.6766 241H86.4766L91.0366 241.02C95.1566 241.04 95.8566 244.14 95.8566 245.38C95.8566 246.8 94.9366 249.74 91.0366 249.74H86.4766V255H84.6766V241ZM86.4766 248.16C87.5366 248.12 90.2366 248.18 90.7366 248.18C93.2366 248.18 94.0966 246.78 94.0966 245.38C94.0966 244.04 93.3166 242.64 91.0366 242.6C90.9966 242.6 88.3566 242.6 86.4766 242.58V248.16ZM98.2241 248.26C98.3241 251.5 100.244 253.72 103.424 253.72C105.604 253.72 107.744 252.7 108.584 249.78L110.184 250.5C109.164 254.02 106.284 255.32 103.424 255.32C99.3441 255.32 96.4641 252.5 96.4641 248C96.4641 243.5 99.3441 240.68 103.424 240.68C107.784 240.68 110.344 243.42 110.184 248.26H98.2241ZM98.3241 246.66H108.404C108.164 244.28 106.764 242.28 103.424 242.28C100.624 242.28 98.7841 244.02 98.3241 246.66ZM98.7841 238.56C98.7841 237.8 99.2641 237.36 100.004 237.36C100.744 237.36 101.224 237.86 101.224 238.56C101.224 239.3 100.704 239.8 100.004 239.8C99.2641 239.8 98.7841 239.28 98.7841 238.56ZM104.624 238.54C104.624 237.78 105.104 237.34 105.844 237.34C106.584 237.34 107.064 237.84 107.064 238.54C107.064 239.28 106.544 239.78 105.844 239.78C105.104 239.78 104.624 239.26 104.624 238.54ZM116.353 241H125.353V253.3H127.993V255L127.793 258.48H126.093L126.293 255H113.213L113.413 258.48H111.713L111.513 255V253.3H112.973C114.293 253.3 115.333 252.74 115.593 249.72L116.353 241ZM116.313 253.3H123.553V242.66H117.913L117.173 250.74C116.973 251.86 116.673 252.68 116.313 253.3ZM129.889 241H131.689L131.469 251.12H130.109L129.889 241ZM129.589 254.1C129.589 253.34 130.069 252.9 130.809 252.9C131.549 252.9 132.029 253.4 132.029 254.1C132.029 254.84 131.509 255.34 130.809 255.34C130.069 255.34 129.589 254.82 129.589 254.1Z" fill="white"/>
<rect x="20" y="130" width="45" height="22" rx="6" fill="white"/>
<path d="M33.98 141.8C33.98 139.1 35.156 137.408 37.172 137.408C39.188 137.408 40.364 139.1 40.364 141.8C40.364 144.5 39.188 146.192 37.172 146.192C35.156 146.192 33.98 144.5 33.98 141.8ZM35.036 141.8C35.036 143.912 35.804 145.232 37.172 145.232C38.54 145.232 39.308 143.912 39.308 141.8C39.308 139.688 38.54 138.368 37.172 138.368C35.804 138.368 35.036 139.688 35.036 141.8ZM43.1877 137.312C43.7797 137.312 44.2277 137.548 44.5317 138.02C44.8357 138.484 44.9877 139.14 44.9877 139.988C44.9877 140.836 44.8397 141.5 44.5437 141.98C44.2557 142.452 43.8037 142.688 43.1877 142.688C42.6197 142.688 42.1837 142.452 41.8797 141.98C41.5837 141.5 41.4357 140.836 41.4357 139.988C41.4357 139.14 41.5757 138.484 41.8557 138.02C42.1357 137.548 42.5797 137.312 43.1877 137.312ZM48.6717 137.432L43.9197 146H42.9957L47.7477 137.432H48.6717ZM43.1877 138.056C42.8837 138.056 42.6597 138.22 42.5157 138.548C42.3797 138.868 42.3117 139.348 42.3117 139.988C42.3117 140.628 42.3797 141.112 42.5157 141.44C42.6597 141.768 42.8837 141.932 43.1877 141.932C43.8037 141.932 44.1117 141.284 44.1117 139.988C44.1117 138.7 43.8037 138.056 43.1877 138.056ZM48.4317 140.744C49.0157 140.744 49.4597 140.98 49.7637 141.452C50.0757 141.916 50.2317 142.572 50.2317 143.42C50.2317 144.268 50.0837 144.932 49.7877 145.412C49.4997 145.884 49.0477 146.12 48.4317 146.12C47.8637 146.12 47.4277 145.884 47.1237 145.412C46.8277 144.932 46.6797 144.268 46.6797 143.42C46.6797 142.572 46.8197 141.916 47.0997 141.452C47.3797 140.98 47.8237 140.744 48.4317 140.744ZM48.4317 141.5C48.1277 141.5 47.9037 141.66 47.7597 141.98C47.6237 142.3 47.5557 142.78 47.5557 143.42C47.5557 144.068 47.6237 144.556 47.7597 144.884C47.9037 145.204 48.1277 145.364 48.4317 145.364C49.0477 145.364 49.3557 144.716 49.3557 143.42C49.3557 142.14 49.0477 141.5 48.4317 141.5Z" fill="black" fill-opacity="0.5"/>
<path d="M71.72 137.6H72.8L75.248 137.612C77.78 137.624 78.188 138.86 78.188 139.688C78.188 140.816 77.348 141.416 76.664 141.584C77.636 141.644 78.584 142.316 78.584 143.696C78.584 144.872 77.888 145.976 75.62 145.988L72.8 146H71.72V137.6ZM72.8 145.064C73.928 145.052 75.368 145.052 75.704 145.04C76.568 145.016 77.588 144.752 77.588 143.624C77.588 142.616 76.76 141.944 75.584 141.944C74.54 141.944 73.316 141.956 72.8 141.944V145.064ZM72.8 141.164C73.364 141.152 74.66 141.188 75.128 141.188C76.544 141.188 77.204 140.6 77.204 139.808C77.204 138.92 76.364 138.596 75.584 138.572C75.272 138.56 73.808 138.56 72.8 138.548V141.164ZM79.7825 146V137.6H80.8625V140.756H83.5985C85.9385 140.756 86.4905 142.508 86.4905 143.324C86.4905 144.104 86.0705 145.976 83.5985 145.988L80.8625 146H79.7825ZM80.8625 145.052C81.9545 145.04 83.5625 145.04 83.5985 145.04C85.0145 145.016 85.5065 144.176 85.5065 143.3C85.5065 142.532 84.8945 141.692 83.5985 141.692C83.0105 141.692 81.4745 141.728 80.8625 141.704V145.052ZM87.5705 146V137.6H88.6505V146H87.5705ZM90.095 146V137.6H96.491V138.596H91.175V140.768H93.671C96.251 140.768 96.803 142.52 96.803 143.408C96.803 144.116 96.383 146 93.671 146H90.095ZM91.175 145.064C92.267 145.052 93.635 145.052 93.671 145.052C95.327 145.028 95.819 144.188 95.819 143.384C95.819 142.544 95.207 141.704 93.671 141.704C93.275 141.704 91.787 141.74 91.175 141.716V145.064ZM98.0052 137.6H99.0852L101.821 137.612C104.293 137.624 104.713 139.484 104.713 140.228C104.713 141.08 104.161 142.844 101.821 142.844H99.0852V146H98.0052V137.6ZM99.0852 141.896C99.7212 141.872 101.341 141.908 101.641 141.908C103.141 141.908 103.657 141.068 103.657 140.228C103.657 139.424 103.189 138.584 101.821 138.56C101.797 138.56 100.213 138.56 99.0852 138.548V141.896ZM110.922 146L110.802 144.296V142.688V142.628L110.814 144.272L110.802 144.296C110.25 145.4 108.666 146.18 107.418 146.18C106.134 146.18 104.838 145.352 104.838 143.828C104.838 142.736 105.606 141.74 106.854 141.284C107.958 140.888 109.746 140.648 110.79 140.648L110.802 141.416H110.79V140.588C110.79 140.048 110.754 138.368 108.414 138.368C106.386 138.368 106.062 139.844 105.894 140.576L104.85 140.348C104.982 139.532 105.654 137.408 108.462 137.408C110.814 137.408 111.87 138.872 111.87 140.852V144.296C111.87 144.836 111.87 145.064 112.59 145.064L113.154 145.076V146H110.922ZM105.942 143.852C105.942 144.44 106.23 145.148 107.418 145.148C109.074 145.148 110.67 143.804 110.802 142.688L110.79 141.416C110.166 141.452 108.222 141.836 107.154 142.232C106.182 142.592 105.942 143.324 105.942 143.852ZM113.872 137.6H114.952V141.176H119.656V137.6H120.736V146H119.656V142.172H114.952V146H113.872V137.6ZM126.117 146.192C123.549 146.192 121.941 144.5 121.941 141.8C121.941 139.1 123.549 137.408 126.117 137.408C128.685 137.408 130.293 139.1 130.293 141.8C130.293 144.5 128.685 146.192 126.117 146.192ZM122.997 141.8C122.997 143.912 124.197 145.232 126.117 145.232C128.037 145.232 129.237 143.912 129.237 141.8C129.237 139.688 128.037 138.368 126.117 138.368C124.197 138.368 122.997 139.688 122.997 141.8Z" fill="black" fill-opacity="0.5"/>
<ellipse cx="18.8174" cy="13.9261" rx="18.8174" ry="13.9261" transform="matrix(-0.974257 -0.225439 -0.225439 0.974257 289.896 119.135)" fill="#CA9F11"/>
<ellipse cx="171.43" cy="154.277" rx="18.8174" ry="13.925" transform="rotate(-41.6974 171.43 154.277)" fill="#CA9F11"/>
<path d="M291.884 154.921C284.068 131.53 259.513 118.145 235.618 124.251L197.773 133.922C174.212 139.943 159.123 162.928 162.968 186.94L217.776 529.169C222.153 556.497 249.06 574.161 275.875 567.309L368.58 543.619C395.049 536.856 410.209 509.043 401.551 483.132L291.884 154.921Z" fill="#FFD23C"/>
<path d="M313.651 275.048C305.683 251.873 281.259 238.698 257.517 244.765L239.603 249.342C216.366 255.28 201.316 277.749 204.669 301.498L234.754 514.596C238.672 542.346 265.831 560.537 292.983 553.599L350.594 538.877C377.22 532.073 392.37 503.991 383.434 478.002L313.651 275.048Z" fill="#F0F2DC"/>
<path d="M222.174 183.517C224.747 193.586 220.2 203.444 212.019 205.534C203.838 207.625 195.12 201.157 192.547 191.088C189.974 181.019 194.521 171.162 202.702 169.071C210.883 166.981 219.601 173.448 222.174 183.517Z" fill="black"/>
<rect x="204.906" y="176.671" width="8" height="7" rx="3.5" transform="rotate(-14.3343 204.906 176.671)" fill="white"/>
<path d="M235.294 206.363C234.357 202.698 237.911 199.483 241.464 200.779L250.906 204.224C254.299 205.462 255.089 209.904 252.33 212.236L245.29 218.187C242.638 220.429 238.555 219.124 237.695 215.759L235.294 206.363Z" fill="#534100"/>
<path d="M243.271 204.325C242.334 200.66 237.674 199.543 235.178 202.386L228.661 209.808C226.252 212.551 227.75 216.873 231.339 217.537L240.171 219.173C243.548 219.798 246.436 216.711 245.585 213.383L243.271 204.325Z" fill="#534100"/>
<path d="M242.685 178.276C245.258 188.345 253.976 194.813 262.157 192.722C270.338 190.631 274.884 180.774 272.311 170.705C269.738 160.636 261.02 154.168 252.839 156.259C244.658 158.349 240.112 168.207 242.685 178.276Z" fill="black"/>
<rect x="255.518" y="162.706" width="8" height="7" rx="3.5" transform="rotate(-14.3343 255.518 162.706)" fill="white"/>
<path d="M240 168.5C248 168.5 256.5 156.5 256.5 142" stroke="white" stroke-linecap="round"/>
<path d="M273 168.5C265 168.5 256.5 156.5 256.5 142" stroke="white" stroke-linecap="round"/>
<path d="M240 168.5C248 168.5 256.5 180.5 256.5 195" stroke="white" stroke-linecap="round"/>
<path d="M273 168.5C265 168.5 256.5 180.5 256.5 195" stroke="white" stroke-linecap="round"/>
<path d="M243 168.5L251 162.5L253 159L256.5 149.5L260.5 160.5L265 166L269.5 168.5L263.5 172.5L259.5 178.5L257.5 184L256.5 189L254 180L250.5 174L246.5 170L243 168.5Z" fill="white" stroke="white" stroke-linecap="round"/>
</g>
<defs>
<radialGradient id="paint0_radial_2726_828" cx="0" cy="0" r="1" gradientUnits="userSpaceOnUse" gradientTransform="translate(207 184) rotate(119.32) scale(167.451 167.451)">
<stop stop-color="#91B2FB"/>
<stop offset="1" stop-color="#D8E5F6"/>
</radialGradient>
<clipPath id="clip0_2726_828">
<rect width="322" height="285" rx="16" fill="white"/>
</clipPath>
</defs>
</svg>
