<svg width="98" height="74" viewBox="0 0 98 74" fill="none" xmlns="http://www.w3.org/2000/svg">
<path d="M13.0955 1.15674C19.5377 7.12754 42.4781 9.23303 50.6487 9.48443C50.6487 9.48443 49.9678 56.4128 50.6487 72.6492C40.9069 75.3203 8.44457 68.2811 6.81045 63.3787C3.77268 59.8172 -1.39154 51.1857 2.25379 45.1521C5.89912 39.1184 11.0005 13.3078 13.0955 1.15674Z" fill="black" stroke="#090909" stroke-width="0.314253"/>
<path d="M84.9045 1C78.4623 6.9708 55.5219 9.07629 47.3513 9.32769C47.3513 9.32769 46.9322 56.8846 46.2513 73.121C55.9931 75.7921 89.5554 68.1243 91.1895 63.222C94.2273 59.6605 99.3915 51.029 95.7462 44.9954C92.1009 38.9617 86.9995 13.1511 84.9045 1Z" fill="black" stroke="#090909" stroke-width="0.314253"/>
<path d="M15.1361 2.5708L6.27078 42.9523C3.44251 45.4663 1.78002 55.6795 11.3648 66.6783" stroke="white" stroke-width="0.942758"/>
<path d="M16.9349 2.5708L8.06961 42.9523C5.24133 45.4663 3.57885 55.6795 13.1636 66.6783" stroke="white" stroke-width="0.942758"/>
<path d="M18.8177 3.19971L9.95242 43.5812C7.12415 46.0952 5.46166 56.3084 15.0464 67.3072" stroke="white" stroke-width="0.942758"/>
<path d="M82.7682 3.19971L91.6335 43.5812C94.4618 46.0952 96.1243 56.3084 86.5395 67.3072" stroke="white" stroke-width="0.942758"/>
<path d="M80.9753 3.19971L89.8406 43.5812C92.6688 46.0952 94.3313 56.3084 84.7466 67.3072" stroke="white" stroke-width="0.942758"/>
<path d="M79.0905 3.82812L87.9558 44.2096C90.7841 46.7236 92.4465 56.9368 82.8618 67.9356" stroke="white" stroke-width="0.942758"/>
<rect x="49" y="27.0527" width="25.1569" height="19.1192" rx="9.55962" transform="rotate(90 49 27.0527)" fill="#F4F4F4"/>
<rect x="71.3906" y="27.0527" width="25.1569" height="19.1192" rx="9.55962" transform="rotate(90 71.3906 27.0527)" fill="#F4F4F4"/>
</svg>
