<svg viewBox="0 0 198 467" fill="none" xmlns="http://www.w3.org/2000/svg">
<ellipse cx="18.8174" cy="13.9261" rx="18.8174" ry="13.9261" transform="matrix(-0.888112 -0.459627 -0.459627 0.888112 176.096 17.2979)" fill="#CA9F11"/>
<ellipse cx="52.6181" cy="22.0158" rx="18.8174" ry="13.925" transform="rotate(-27.363 52.6181 22.0158)" fill="#CA9F11"/>
<path d="M169.161 52.4625C167.379 27.8639 146.903 8.81689 122.24 8.81689H83.1788C58.8608 8.81689 38.5507 27.3509 36.3316 51.5675L4.70422 396.711C2.17865 424.272 23.8749 448.048 51.5514 448.048H147.235C174.555 448.048 196.129 424.855 194.156 397.606L169.161 52.4625Z" fill="#FFD23C"/>
<path d="M160.51 174.238C158.527 149.812 138.126 131 113.62 131H95.1311C71.1469 131 51.0027 149.043 48.3715 172.883L24.7618 386.796C21.6874 414.651 43.4967 439 71.5214 439H130.983C158.465 439 180.096 415.543 177.873 388.151L160.51 174.238Z" fill="#F0F2DC"/>
<rect x="102.506" y="165" width="50" height="38" rx="19" transform="rotate(90 102.506 165)" fill="#CFA200"/>
<rect x="147" y="165" width="50" height="38" rx="19" transform="rotate(90 147 165)" fill="#CFA200"/>
<rect x="133.506" y="429" width="57" height="38" rx="19" fill="#CFA200"/>
<rect x="14.5059" y="429" width="57" height="38" rx="19" fill="#CFA200"/>
<path d="M94.5412 62.9087C94.5412 73.3013 87.696 81.7261 79.252 81.7261C70.8081 81.7261 63.9629 73.3013 63.9629 62.9087C63.9629 52.5161 70.8081 44.0913 79.252 44.0913C87.696 44.0913 94.5412 52.5161 94.5412 62.9087Z" fill="black"/>
<rect x="79.5059" y="52" width="8" height="7" rx="3.5" fill="white"/>
<path d="M101.598 88.2919C101.598 84.5089 105.836 82.2732 108.958 84.4094L117.253 90.0845C120.234 92.1242 119.899 96.6235 116.649 98.1998L108.355 102.223C105.231 103.738 101.598 101.462 101.598 97.9899V88.2919Z" fill="#534100"/>
<path d="M109.83 88.2919C109.83 84.5089 105.591 82.2732 102.469 84.4094L94.3179 89.9866C91.3052 92.0479 91.6861 96.606 94.9992 98.1387L103.15 101.91C106.268 103.352 109.83 101.075 109.83 97.6402V88.2919Z" fill="#534100"/>
<path d="M115.711 62.9082C115.711 73.3008 122.556 81.7256 131 81.7256C139.444 81.7256 146.289 73.3008 146.289 62.9082C146.289 52.5157 139.444 44.0908 131 44.0908C122.556 44.0908 115.711 52.5157 115.711 62.9082Z" fill="black"/>
<rect x="132" y="51" width="8" height="7" rx="3.5" fill="white"/>
</svg>
