<svg width="85" height="202" viewBox="0 0 85 202" fill="none" xmlns="http://www.w3.org/2000/svg">
<ellipse cx="8.08599" cy="5.98416" rx="8.08599" ry="5.98416" transform="matrix(-0.888112 -0.459627 -0.459627 0.888112 75.6719 8.26758)" fill="#CA9F11"/>
<ellipse cx="22.6112" cy="10.2949" rx="8.08599" ry="5.98369" transform="rotate(-27.363 22.6112 10.2949)" fill="#CA9F11"/>
<path d="M72.6898 23.3696C71.9243 12.7994 63.1255 4.61475 52.5276 4.61475H35.7426C25.293 4.61475 16.5656 12.579 15.612 22.985L2.02145 171.296C0.936188 183.139 10.2592 193.356 22.1521 193.356H63.2681C75.0076 193.356 84.2783 183.39 83.4303 171.681L72.6898 23.3696Z" fill="#FFD23C"/>
<path d="M68.9744 75.6967C68.1224 65.2009 59.3559 57.1172 48.8256 57.1172H40.8807C30.5745 57.1172 21.9184 64.8705 20.7877 75.1145L10.6424 167.035C9.32132 179.004 18.6929 189.467 30.7354 189.467H56.2867C68.096 189.467 77.3908 179.388 76.4354 167.617L68.9744 75.6967Z" fill="#F0F2DC"/>
<rect x="44.0469" y="71.7363" width="21.4854" height="16.3289" rx="8.16446" transform="rotate(90 44.0469 71.7363)" fill="#CFA200"/>
<rect x="63.168" y="71.7363" width="21.4854" height="16.3289" rx="8.16446" transform="rotate(90 63.168 71.7363)" fill="#CFA200"/>
<rect x="57.3691" y="185.179" width="24.4934" height="16.3289" rx="8.16446" fill="#CFA200"/>
<rect x="6.23438" y="185.179" width="24.4934" height="16.3289" rx="8.16446" fill="#CFA200"/>
<path d="M40.6241 27.8668C40.6241 32.3325 37.6827 35.9527 34.0542 35.9527C30.4258 35.9527 27.4844 32.3325 27.4844 27.8668C27.4844 23.401 30.4258 19.7808 34.0542 19.7808C37.6827 19.7808 40.6241 23.401 40.6241 27.8668Z" fill="black"/>
<rect x="34.168" y="23.1792" width="3.43767" height="3.00796" rx="1.50398" fill="white"/>
<path d="M43.6602 38.7739C43.6602 37.1483 45.4815 36.1876 46.8232 37.1056L50.3873 39.5442C51.6683 40.4207 51.5246 42.3541 50.128 43.0314L46.5638 44.7601C45.2213 45.4112 43.6602 44.4333 43.6602 42.9412V38.7739Z" fill="#534100"/>
<path d="M47.1973 38.7739C47.1973 37.1483 45.3759 36.1876 44.0343 37.1056L40.5316 39.5021C39.237 40.3879 39.4007 42.3466 40.8243 43.0052L44.327 44.6256C45.6666 45.2454 47.1973 44.267 47.1973 42.791V38.7739Z" fill="#534100"/>
<path d="M49.7216 27.8658C49.7216 32.3315 52.663 35.9518 56.2915 35.9518C59.9199 35.9518 62.8613 32.3315 62.8613 27.8658C62.8613 23.4 59.9199 19.7798 56.2915 19.7798C52.663 19.7798 49.7216 23.4 49.7216 27.8658Z" fill="black"/>
<rect x="56.7188" y="22.7495" width="3.43767" height="3.00796" rx="1.50398" fill="white"/>
</svg>
